<svg xmlns="http://www.w3.org/2000/svg" xmlns:xlink="http://www.w3.org/1999/xlink" height="153.604835296701pt" stroke-miterlimit="10" style="fill-rule:nonzero;clip-rule:evenodd;stroke-linecap:round;stroke-linejoin:round;" viewBox="0 0 482.094 153.605" width="482.093705406156pt" xml:space="preserve"><defs></defs><g id="Layer-1"><g opacity="1"><path d="M65.1643 79.3221C65.1643 39.5499 97.406 7.30824 137.178 7.30824C176.95 7.30824 209.192 39.5499 209.192 79.3221C209.192 102.634 198.115 123.359 180.937 136.52C180.165 137.113 178.905 137.28 177.515 137.288C175.627 137.298 173.498 137.012 172.022 137.093C164.033 137.53 157.824 137.615 150.46 137.547C143.303 137.481 139.705 137.667 132.689 137.667C125.615 137.667 123.036 137.721 119.448 137.737C117.215 137.747 114.317 137.861 110.543 137.572C107.569 137.344 103.566 137.509 99.3425 137.107C97.5998 136.941 94.6647 137.469 93.6075 136.664C76.3223 123.51 65.1643 102.719 65.1643 79.3221Z" fill="#f7a41c" fill-rule="nonzero" opacity="1" stroke="none"></path><path d="M58.816 134.428C58.816 128.163 93.8999 123.084 137.178 123.084C180.456 123.084 215.54 128.163 215.54 134.428C215.54 140.692 180.456 145.771 137.178 145.771C93.8999 145.771 58.816 140.692 58.816 134.428Z" fill="#384c40" fill-rule="nonzero" opacity="1" stroke="none"></path><path d="M163.791 68.7753C164.34 68.9584 165.505 70.9141 166.601 71.4884C168.721 72.599 173.205 73.7028 174.546 75.8486C174.775 76.2146 174.926 77.7759 175.031 78.1741C175.317 79.2617 176.484 79.8015 177.259 80.4996C178.711 81.8065 182.282 82.9689 181.426 85.5382C181.008 86.792 178.592 86.0785 177.938 85.9258C176.927 85.6899 175.875 85.612 174.837 85.6351C174.061 85.6523 173.179 85.3359 172.511 85.732C171.964 86.0568 172.015 86.904 171.736 87.4761C171.433 88.0997 171.13 88.7258 170.767 89.3171C170.306 90.0691 169.195 91.2632 168.732 91.9333C167.361 93.9219 167.372 96.3016 166.31 98.4253C166.157 98.7324 165.752 98.879 165.632 99.2004C165.318 100.037 165.991 100.951 166.213 101.817C166.85 104.295 167.83 106.732 168.442 109.181C168.827 110.723 167.191 111.559 166.601 112.766C164.846 116.351 164.35 118.687 160.69 120.517C160.055 119.723 160.01 118.879 160.206 117.901C160.69 117.901 160.69 117.901 161.175 117.901C161.175 117.804 161.175 117.804 161.175 117.707C163.676 117.207 163.918 115.43 164.954 113.25C165.386 112.34 166.73 110.412 166.31 109.084C165.823 107.541 163.138 103.877 162.047 102.786C161.498 104.667 160.433 106.839 160.206 108.793C159.894 111.474 159.749 114.317 159.527 117.029C159.421 118.332 159.086 119.8 159.334 121.099C159.514 122.048 160.464 123.457 160.884 124.296C159.942 124.925 158.693 124.512 157.686 124.296C157.686 123.812 157.686 123.812 157.686 123.327C157.59 123.327 157.59 123.327 157.493 123.327C157.592 122.729 157.807 122.675 157.977 122.165C157.541 122.213 157.541 122.213 157.105 122.262C157.189 121.592 157.577 120.989 157.686 120.324C158.255 116.863 158.495 112.999 158.655 109.471C158.77 106.955 158.134 104.513 157.977 102.01C154.901 102.82 152.285 102.957 149.063 102.882C148.991 102.881 148.934 102.818 148.869 102.786C148.727 105.475 148.303 107.84 147.222 110.343C146.778 111.371 145.932 111.977 146.35 113.056C147.481 115.979 150.056 118.678 150.807 121.68C150.901 122.057 150.786 122.472 150.904 122.843C151.044 123.284 151.485 123.64 151.485 124.103C150.968 124.232 149.536 124.494 149.16 123.909C148.878 123.471 149.264 122.785 148.966 122.358C148.495 121.685 147.984 121.749 149.063 121.389C148.468 118.415 143.79 115.885 142.958 112.766C142.521 111.127 144.473 110.22 144.606 108.89C144.743 107.511 143.96 106.276 143.54 105.014C143.012 105.014 141.74 106.906 141.117 107.34C139.388 108.543 137.075 109.264 135.691 110.925C135.58 111.058 135.504 111.235 135.497 111.409C135.439 112.894 135.438 114.382 135.497 115.866C135.59 118.178 135.718 121.015 135.982 123.327C136.025 123.703 136.369 124.015 136.369 124.393C135.244 124.768 133.266 124.886 133.85 123.134C133.705 123.085 133.705 123.085 133.559 123.037C133.683 122.295 133.909 121.974 133.753 121.196C133.899 121.196 133.899 121.196 134.044 121.196C135.405 117.113 132.395 112.775 133.172 108.696C133.278 108.141 134.162 108.147 134.625 107.824C135.578 107.162 136.045 106.667 136.66 105.692C138.103 103.408 136.603 99.3535 135.982 96.9718C135.849 96.4627 135.594 95.276 135.11 95.0339C135.11 96.238 135.199 95.6923 134.916 96.6812C134.545 96.4336 134.625 96.6038 134.625 96.1967C134.528 96.1967 134.528 96.1967 134.432 96.1967C134.432 96.5843 134.432 96.5843 134.432 96.9718C134.335 96.9718 134.335 96.9718 134.238 96.9718C134.238 97.2625 134.238 97.2625 134.238 97.5532C133.915 97.3917 134.076 97.5209 133.85 97.0687C133.753 97.1172 133.753 97.1172 133.656 97.1656C133.435 94.2829 134.792 91.0627 137.629 89.8016C139.75 88.8588 142.284 89.7389 144.509 89.8016C147.47 89.885 150.464 89.5722 153.423 89.7047C156.24 89.8308 158.991 90.4096 161.756 89.5109C163.185 89.0466 167.862 83.4379 168.151 81.7593C168.284 80.9894 168.275 80.1969 168.442 79.4338C168.498 79.179 169.004 78.6631 168.829 78.271C168.358 77.2108 168.06 77.1159 168.151 75.7517C168.156 75.6797 168.178 75.5736 168.248 75.558C169.119 75.3644 169.558 76.0424 170.38 76.0424C167.845 72.6623 161.285 74.1811 160.884 68.9691C161.136 68.9691 162.302 70.5807 162.434 70.7132C163.217 71.4957 164.228 71.5132 165.147 71.9728C164.061 70.766 163.791 70.3987 163.791 68.7753Z" fill="#f4f4f4" fill-rule="nonzero" opacity="1" stroke="none"></path><path d="M259.624 25.9075L259.265 70.5336L270.795 70.3177L270.275 93.2724L242.106 93.2724L242.106 25.9075L259.624 25.9075Z" fill="#f7a41c" fill-rule="nonzero" opacity="1" stroke="none"></path><path d="M306.891 25.9075L316.919 93.2724L298.986 93.2724L298.112 81.1642L291.829 81.1642L290.789 93.2724L272.647 93.2724L281.551 25.9075L306.891 25.9075ZM297.613 69.2224C296.725 61.5941 295.837 52.1766 294.95 40.9699C293.174 53.841 292.065 63.2585 291.621 69.2224L297.613 69.2224Z" fill="#f7a41c" fill-rule="nonzero" opacity="1" stroke="none"></path><path d="M359.652 25.9075L350.747 93.2724L324.159 93.2724L314.048 25.9075L332.522 25.9075C334.658 44.4651 336.184 60.1516 337.099 72.9672C338.015 60.013 338.972 48.5011 339.97 38.4318L341.177 25.9075L359.652 25.9075Z" fill="#f7a41c" fill-rule="nonzero" opacity="1" stroke="none"></path><path d="M380.165 25.9075L380.165 93.2724L362.647 93.2724L362.647 25.9075L380.165 25.9075Z" fill="#f7a41c" fill-rule="nonzero" opacity="1" stroke="none"></path><path d="M387.197 25.9075L399.596 25.9075C407.862 25.9075 413.459 26.2265 416.385 26.8645C419.312 27.5025 421.697 29.1322 423.542 31.7535C425.387 34.3749 426.309 38.5566 426.309 44.2986C426.309 49.5414 425.657 53.0643 424.354 54.8673C423.05 56.6704 420.484 57.7522 416.656 58.1128C420.123 58.9727 422.453 60.1239 423.646 61.5664C424.839 63.0088 425.581 64.3334 425.872 65.54C426.164 66.7467 426.309 70.0685 426.309 75.5054L426.309 93.2724L410.04 93.2724L410.04 70.8868C410.04 67.2807 409.756 65.0476 409.187 64.1877C408.618 63.3278 407.127 62.8978 404.714 62.8978L404.714 93.2724L387.197 93.2724L387.197 25.9075ZM404.714 37.4331L404.714 52.4124C406.684 52.4124 408.064 52.1419 408.854 51.601C409.645 51.0601 410.04 49.3056 410.04 46.3375L410.04 42.6343C410.04 40.4983 409.659 39.0975 408.896 38.4318C408.133 37.766 406.739 37.4331 404.714 37.4331Z" fill="#f7a41c" fill-rule="nonzero" opacity="1" stroke="none"></path><path d="M463.341 25.9075L473.369 93.2724L455.435 93.2724L454.562 81.1642L448.279 81.1642L447.238 93.2724L429.097 93.2724L438.001 25.9075L463.341 25.9075ZM454.062 69.2224C453.175 61.5941 452.287 52.1766 451.399 40.9699C449.624 53.841 448.514 63.2585 448.071 69.2224L454.062 69.2224Z" fill="#f7a41c" fill-rule="nonzero" opacity="1" stroke="none"></path><g opacity="1"><path d="M363.824 115.617L365.393 112.763C368.608 114.533 371.728 115.417 374.753 115.417C376.769 115.417 378.609 115.051 380.274 114.319C381.939 113.586 383.251 112.587 384.212 111.322C385.172 110.057 385.653 108.683 385.653 107.199C385.653 105.734 385.215 104.431 384.34 103.29C383.465 102.148 381.886 100.826 379.603 99.3235C377.378 97.8397 376.022 96.9266 375.537 96.5842C375.052 96.2418 374.42 95.7567 373.64 95.1289C372.251 93.9114 371.557 92.4752 371.557 90.8202C371.557 87.8336 373.497 84.9611 377.378 82.2027C378.462 81.4228 379.703 80.7189 381.101 80.0911C382.5 79.4634 383.874 78.9878 385.225 78.6644C386.575 78.341 387.84 78.1793 389.02 78.1793C390.751 78.1793 392.111 78.5027 393.1 79.1495C394.09 79.7963 394.584 80.6999 394.584 81.8603C394.584 83.287 393.985 84.8136 392.786 86.4401C391.588 88.0666 389.952 89.5647 387.878 90.9343L385.596 89.6503C387.003 88.6991 388.192 87.7479 389.163 86.7968C390.133 85.8456 390.884 84.9183 391.417 84.0147C391.949 83.1111 392.216 82.2883 392.216 81.5464C392.216 81.0328 392.073 80.5953 391.788 80.2338C391.502 79.8724 391.093 79.5965 390.561 79.4063C390.028 79.2161 389.362 79.121 388.563 79.121C387.08 79.121 385.486 79.4111 383.784 79.9913C382.081 80.5715 380.478 81.3372 378.976 82.2883C375.628 84.3999 373.954 86.7492 373.954 89.3364C373.954 90.0593 374.153 90.7393 374.553 91.3766C374.952 92.0139 375.651 92.732 376.65 93.531C377.649 94.33 379.109 95.3572 381.03 96.6127C382.457 97.5449 383.536 98.3058 384.269 98.8955C385.001 99.4852 385.605 100.103 386.081 100.75C387.146 102.101 387.679 103.613 387.679 105.287C387.679 106.581 387.341 107.893 386.666 109.225C385.99 110.557 385.035 111.803 383.798 112.963C380.907 115.683 376.893 117.044 371.756 117.044C368.408 117.044 365.764 116.568 363.824 115.617Z" fill="#384c40" fill-rule="nonzero" opacity="1" stroke="none"></path><path d="M407.624 99.4947L404.942 109.938C404.657 111.08 404.514 111.974 404.514 112.621C404.514 113.191 404.638 113.686 404.885 114.104C405.132 114.523 405.437 114.732 405.798 114.732C406.35 114.732 407.263 114.057 408.538 112.706L408.937 113.106L408.623 113.477C407.615 114.637 406.84 115.45 406.298 115.916C405.755 116.383 405.285 116.616 404.885 116.616C404.276 116.616 403.749 116.297 403.301 115.66C402.854 115.022 402.631 114.285 402.631 113.448C402.631 112.839 402.859 111.46 403.316 109.311L403.544 108.226C402.84 109.862 401.899 111.432 400.719 112.935C398.741 115.446 396.848 116.701 395.041 116.701C393.956 116.701 393.1 116.311 392.473 115.531C391.845 114.751 391.531 113.705 391.531 112.392C391.531 110.604 392.04 108.73 393.058 106.771C394.075 104.812 395.34 103.199 396.853 101.934C398.365 100.669 399.835 100.037 401.261 100.037C402.764 100.037 403.886 100.589 404.628 101.692L404.942 100.608L407.624 99.4947ZM404.343 103.147C404.115 102.424 403.73 101.858 403.187 101.449C402.645 101.04 402.022 100.836 401.318 100.836C400.481 100.836 399.597 101.221 398.665 101.992C397.732 102.762 396.876 103.832 396.096 105.202C395.488 106.286 394.979 107.484 394.57 108.797C394.161 110.11 393.956 111.194 393.956 112.05C393.956 113.02 394.142 113.781 394.513 114.333C394.884 114.884 395.412 115.16 396.096 115.16C396.972 115.16 397.885 114.751 398.836 113.933C399.787 113.115 400.729 111.945 401.661 110.424C402.231 109.548 402.678 108.673 403.002 107.798C403.325 106.923 403.687 105.706 404.086 104.146L404.343 103.147Z" fill="#384c40" fill-rule="nonzero" opacity="1" stroke="none"></path><path d="M414.073 101.121L411.277 101.121L411.477 100.151L414.302 100.151L416.984 87.6243C417.44 85.5508 417.906 83.8958 418.382 82.6593C418.858 81.4228 419.428 80.3575 420.094 79.4634C421.73 77.2757 423.766 76.1819 426.201 76.1819C427.019 76.1819 427.77 76.315 428.455 76.5814L427.428 79.178C426.667 78.1127 425.696 77.5801 424.517 77.5801C423.623 77.5801 422.895 77.9273 422.334 78.6216C421.773 79.3159 421.293 80.4621 420.893 82.06L416.527 100.151L421.121 100.151L420.922 101.121L416.299 101.121L412.39 117.329C411.876 119.498 411.377 121.115 410.892 122.18C410.407 123.245 409.746 124.234 408.909 125.147C407.387 126.802 405.722 127.63 403.915 127.63C403.04 127.63 402.26 127.478 401.575 127.173L402.973 125.119C403.772 125.766 404.638 126.089 405.57 126.089C406.978 126.089 408.033 125.347 408.737 123.863C409.251 122.76 409.793 120.934 410.364 118.385L414.073 101.121Z" fill="#384c40" fill-rule="nonzero" opacity="1" stroke="none"></path><path d="M435.988 99.4947L433.306 109.938C433.02 111.08 432.878 111.974 432.878 112.621C432.878 113.191 433.001 113.686 433.249 114.104C433.496 114.523 433.8 114.732 434.162 114.732C434.713 114.732 435.627 114.057 436.901 112.706L437.301 113.106L436.987 113.477C435.978 114.637 435.203 115.45 434.661 115.916C434.119 116.383 433.648 116.616 433.249 116.616C432.64 116.616 432.112 116.297 431.665 115.66C431.218 115.022 430.994 114.285 430.994 113.448C430.994 112.839 431.223 111.46 431.679 109.311L431.908 108.226C431.204 109.862 430.262 111.432 429.083 112.935C427.104 115.446 425.211 116.701 423.404 116.701C422.32 116.701 421.464 116.311 420.836 115.531C420.208 114.751 419.894 113.705 419.894 112.392C419.894 110.604 420.403 108.73 421.421 106.771C422.439 104.812 423.704 103.199 425.216 101.934C426.728 100.669 428.198 100.037 429.625 100.037C431.128 100.037 432.25 100.589 432.992 101.692L433.306 100.608L435.988 99.4947ZM432.706 103.147C432.478 102.424 432.093 101.858 431.551 101.449C431.009 101.04 430.386 100.836 429.682 100.836C428.845 100.836 427.96 101.221 427.028 101.992C426.096 102.762 425.24 103.832 424.46 105.202C423.851 106.286 423.342 107.484 422.933 108.797C422.524 110.11 422.32 111.194 422.32 112.05C422.32 113.02 422.505 113.781 422.876 114.333C423.247 114.884 423.775 115.16 424.46 115.16C425.335 115.16 426.248 114.751 427.199 113.933C428.15 113.115 429.092 111.945 430.024 110.424C430.595 109.548 431.042 108.673 431.365 107.798C431.689 106.923 432.05 105.706 432.45 104.146L432.706 103.147Z" fill="#384c40" fill-rule="nonzero" opacity="1" stroke="none"></path><path d="M438.899 108.255C440.535 106.276 441.628 104.431 442.18 102.719C440.639 101.863 439.869 100.636 439.869 99.0382C439.869 98.2773 440.049 97.659 440.411 97.1834C440.772 96.7078 441.229 96.4701 441.781 96.4701C442.351 96.4701 442.817 96.7316 443.179 97.2548C443.54 97.7779 443.721 98.458 443.721 99.295C443.721 99.8847 443.616 100.541 443.407 101.264C443.921 101.397 444.387 101.464 444.805 101.464C445.985 101.464 446.955 101.121 447.716 100.436L449.085 100.436L448.886 100.836C447.516 103.347 446.389 105.815 445.504 108.241C444.62 110.666 444.177 112.478 444.177 113.676C444.177 114.114 444.292 114.48 444.52 114.775C444.748 115.07 445.024 115.217 445.347 115.217C446.127 115.217 447.383 114.39 449.114 112.735L449.571 113.248C449.038 113.838 448.21 114.571 447.088 115.446C446.08 116.245 445.138 116.644 444.263 116.644C443.521 116.644 442.936 116.397 442.508 115.902C442.08 115.408 441.866 114.732 441.866 113.876C441.866 112.449 442.418 110.642 443.521 108.455C443.921 107.637 444.434 106.704 445.062 105.658C445.69 104.612 446.479 103.366 447.43 101.92L447.716 101.521C447.088 102.091 446.484 102.496 445.904 102.733C445.324 102.971 444.663 103.09 443.921 103.09C443.578 103.09 443.217 103.043 442.836 102.947C442.228 104.812 441.086 106.733 439.412 108.711L438.899 108.255ZM442.808 101.007C442.884 100.531 442.922 100.132 442.922 99.8086C442.922 99.1428 442.813 98.6197 442.594 98.2392C442.375 97.8587 442.094 97.6685 441.752 97.6685C441.562 97.6685 441.395 97.7589 441.253 97.9396C441.11 98.1203 441.039 98.3438 441.039 98.6102C441.039 99.5042 441.628 100.303 442.808 101.007Z" fill="#384c40" fill-rule="nonzero" opacity="1" stroke="none"></path><path d="M458.074 88.4803C458.568 88.4803 458.968 88.6325 459.272 88.9369C459.577 89.2413 459.729 89.6407 459.729 90.1354C459.729 90.6109 459.567 91.0104 459.244 91.3338C458.92 91.6572 458.53 91.8189 458.074 91.8189C457.636 91.8189 457.246 91.6477 456.904 91.3053C456.562 90.9629 456.39 90.5729 456.39 90.1354C456.39 89.6788 456.552 89.2888 456.875 88.9654C457.199 88.642 457.598 88.4803 458.074 88.4803ZM457.246 99.6659L454.735 109.054C454.317 110.595 454.108 111.831 454.108 112.763C454.108 113.372 454.212 113.867 454.421 114.247C454.631 114.628 454.906 114.818 455.249 114.818C455.839 114.818 456.78 114.114 458.074 112.706L458.53 113.106L458.245 113.42C457.161 114.694 456.362 115.555 455.848 116.002C455.335 116.449 454.859 116.673 454.421 116.673C453.832 116.673 453.332 116.373 452.923 115.774C452.514 115.175 452.31 114.428 452.31 113.534C452.31 112.963 452.424 112.06 452.652 110.823L454.45 100.836L457.246 99.6659Z" fill="#384c40" fill-rule="nonzero" opacity="1" stroke="none"></path><path d="M458.388 114.533L459.986 112.649C460.823 114.628 462.154 115.617 463.981 115.617C464.932 115.617 465.745 115.308 466.42 114.689C467.096 114.071 467.433 113.353 467.433 112.535C467.433 111.945 467.272 111.441 466.948 111.023C466.625 110.604 465.854 109.9 464.637 108.911C463.514 107.998 462.758 107.28 462.368 106.757C461.978 106.234 461.783 105.63 461.783 104.945C461.783 104.051 462.045 103.223 462.568 102.462C463.091 101.701 463.79 101.088 464.665 100.622C465.54 100.156 466.463 99.9228 467.433 99.9228C468.289 99.9228 469.007 100.137 469.588 100.565C470.168 100.993 470.458 101.54 470.458 102.206C470.458 103.081 470.087 103.68 469.345 104.003C469.231 103.109 468.893 102.41 468.332 101.906C467.771 101.402 467.053 101.15 466.178 101.15C465.398 101.15 464.718 101.402 464.137 101.906C463.557 102.41 463.267 102.985 463.267 103.632C463.267 104.431 463.762 105.221 464.751 106.001L466.406 107.342C468.023 108.616 468.831 109.919 468.831 111.251C468.831 112.24 468.551 113.168 467.99 114.033C467.428 114.899 466.668 115.588 465.707 116.102C464.746 116.616 463.733 116.872 462.668 116.872C460.975 116.872 459.548 116.092 458.388 114.533Z" fill="#384c40" fill-rule="nonzero" opacity="1" stroke="none"></path></g><path d="M76.1002 8.24525C73.4023 8.78484 70.6368 9.59423 67.804 10.6734C64.9711 11.7526 62.0708 13.169 59.1031 14.9227C56.1353 16.6764 53.7746 18.3626 52.0209 19.9814C50.2673 21.6001 48.3112 22.2072 46.1529 21.8025C43.9945 21.3978 41.7687 21.1955 39.4754 21.1955C37.1822 21.1955 34.4842 21.735 31.3815 22.8142C28.2789 23.8934 25.7158 25.3098 23.6924 27.0635C21.6689 28.8172 20.1176 30.5034 19.0384 32.1222C17.9592 33.741 17.0149 34.6852 16.2055 34.955C15.3961 35.2248 14.2495 35.9668 12.7656 37.1809C11.2817 38.3949 10.2026 39.609 9.52807 40.8231C8.85358 42.0372 8.51634 43.4536 8.51634 45.0724C8.51634 46.6912 8.65123 47.8378 8.92103 48.5123C9.19083 49.1868 10.1351 50.1311 11.7539 51.3451C13.3727 52.5592 15.531 53.0988 18.229 52.9639C20.9269 52.829 23.9622 52.1545 27.3346 50.9405C30.707 49.7264 33.2027 49.9962 34.8214 51.7498C36.4402 53.5035 38.1939 54.9199 40.0825 55.9991C41.971 57.0783 45.4784 58.2249 50.6045 59.439C55.7306 60.6531 59.1031 61.6648 60.7218 62.4742C62.3406 63.2836 65.0386 66.1165 68.8157 70.9728C72.5929 75.8291 75.2234 78.9318 76.7073 80.2808C78.1911 81.6297 79.8099 84.2603 81.5636 88.1723C83.3173 92.0843 85.0035 95.2544 86.6223 97.6826C88.241 100.111 89.2528 102.134 89.6575 103.753C90.0622 105.372 90.2645 108.137 90.2645 112.049C90.2645 115.961 90.0622 119.401 89.6575 122.369C89.2528 125.337 89.1853 126.955 89.4551 127.225C89.7249 127.495 92.9625 127.63 99.1678 127.63C105.373 127.63 108.746 127.158 109.285 126.214C109.825 125.269 110.567 120.278 111.511 111.24C112.455 102.202 113.534 96.4685 114.748 94.0404C115.963 91.6122 117.784 88.6444 120.212 85.1371C122.64 81.6297 123.989 77.5154 124.259 72.7939C124.529 68.0725 124.866 65.1722 125.271 64.093C125.675 63.0138 126.485 61.9346 127.699 60.8555C128.913 59.7763 130.329 58.8994 131.948 58.2249C133.567 57.5505 136.332 57.0783 140.244 56.8085C144.156 56.5387 147.529 56.0666 150.362 55.3921C153.194 54.7176 155.285 54.0431 156.634 53.3686C157.983 52.6941 159.467 51.5475 161.086 49.9287C162.705 48.3099 164.931 47.5006 167.763 47.5006C170.596 47.5006 172.957 47.2982 174.846 46.8935C176.734 46.4888 178.285 45.8143 179.5 44.87C180.714 43.9258 181.388 42.8466 181.523 41.6325C181.658 40.4184 181.388 39.1369 180.714 37.7879C180.039 36.4389 177.746 34.1457 173.834 30.9081C169.922 27.6706 166.954 25.6471 164.931 24.8377C162.907 24.0283 160.816 23.5562 158.658 23.4213C156.499 23.2864 154.206 22.0048 151.778 19.5767C149.35 17.1485 145.977 14.7878 141.661 12.4945C137.344 10.2013 133.904 8.78484 131.341 8.24525C128.778 7.70566 125.338 7.43586 121.021 7.43586C116.705 7.43586 112.118 7.908 107.262 8.85229C102.405 9.79658 98.7631 9.86402 96.3349 9.05464C93.9067 8.24525 90.6017 7.77311 86.4199 7.63821C82.2381 7.50331 78.7982 7.70566 76.1002 8.24525ZM88.0387 12.2922C91.6809 12.562 94.5812 13.1016 96.7396 13.911C98.898 14.7204 102.743 14.5855 108.273 13.5063C113.804 12.4271 118.121 11.8875 121.224 11.8875C124.326 11.8875 126.957 12.0898 129.115 12.4945C131.273 12.8992 133.23 13.4388 134.983 14.1133C136.737 14.7878 139.165 16.0693 142.268 17.9579C145.37 19.8465 147.731 21.5327 149.35 23.0166C150.969 24.5005 151.98 25.6471 152.385 26.4565C152.79 27.2659 154.274 27.738 156.837 27.8729C159.4 28.0078 161.423 28.345 162.907 28.8846C164.391 29.4242 166.482 30.7058 169.18 32.7292C171.878 34.7527 173.901 36.6413 175.25 38.3949C175.925 39.2718 176.599 40.1486 177.274 41.0255C176.599 41.2952 175.925 41.565 175.25 41.8348C173.901 42.3744 171.743 42.7117 168.775 42.8466C165.807 42.9815 163.379 42.914 161.491 42.6442C159.602 42.3744 157.309 41.7674 154.611 40.8231C151.913 39.8788 148.945 39.9463 145.708 41.0255C142.47 42.1046 139.03 42.7791 135.388 43.0489C131.746 43.3187 128.913 43.2513 126.889 42.8466C124.866 42.4419 122.91 41.7674 121.021 40.8231C119.133 39.8788 116.097 39.8788 111.916 40.8231C107.734 41.7674 103.35 42.307 98.7631 42.4419C94.1765 42.5768 90.4668 42.307 87.634 41.6325C84.8011 40.958 82.8451 40.2161 81.7659 39.4067C80.6867 38.5973 79.8774 38.1926 79.3378 38.1926C78.7982 38.1926 77.5841 38.7996 75.6955 40.0137C73.8069 41.2278 71.9184 42.1046 70.0298 42.6442C68.1412 43.1838 66.2527 43.4536 64.3641 43.4536C62.4755 43.4536 60.5869 43.0489 58.6984 42.2395C56.8098 41.4301 55.5283 41.0255 54.8538 41.0255C54.1793 41.0255 52.2233 41.4301 48.9857 42.2395C45.7482 43.0489 42.5106 43.3862 39.2731 43.2513C36.0355 43.1164 32.4607 43.8583 28.5487 45.4771C24.6366 47.0959 21.4665 48.0401 19.0384 48.3099C16.6102 48.5797 14.9914 48.3099 14.182 47.5006C13.3727 46.6912 12.968 45.8818 12.968 45.0724C12.968 44.263 13.1703 43.5211 13.575 42.8466C13.9797 42.1721 15.2612 41.2278 17.4196 40.0137C19.578 38.7996 21.1967 37.3158 22.2759 35.5621C23.3551 33.8084 24.839 32.1222 26.7276 30.5034C28.6161 28.8846 30.9768 27.6706 33.8097 26.8612C36.6426 26.0518 39.0707 25.7145 41.0942 25.8494C43.1177 25.9843 45.0737 26.3216 46.9623 26.8612C48.8508 27.4008 51.0766 26.5914 53.6397 24.433C56.2028 22.2746 59.0356 20.3186 62.1383 18.5649C65.2409 16.8113 68.1412 15.4623 70.8392 14.518C73.5372 13.5737 76.1677 12.8992 78.7307 12.4945C81.2938 12.0898 84.3964 12.0224 88.0387 12.2922ZM154.004 45.2747C155.15 45.612 156.297 45.9492 157.444 46.2865C157.039 46.7586 156.634 47.2308 156.23 47.7029C155.42 48.6472 153.667 49.524 150.969 50.3334C148.271 51.1428 144.966 51.6824 141.054 51.9522C137.142 52.222 134.444 52.5592 132.96 52.9639C131.476 53.3686 129.857 54.0431 128.103 54.9874C126.35 55.9317 124.866 57.0783 123.652 58.4273C122.438 59.7763 121.561 61.1252 121.021 62.4742C120.482 63.8232 120.077 66.8584 119.807 71.5798C119.537 76.3013 118.526 79.8086 116.772 82.1019C115.018 84.3951 113.197 87.3629 111.309 91.0051C109.42 94.6474 107.936 100.92 106.857 109.823C105.778 118.727 103.35 123.178 99.5725 123.178C97.6839 123.178 95.7953 123.178 93.9067 123.178C94.1091 120.683 94.3114 118.187 94.5138 115.691C94.9185 110.7 94.7836 106.653 94.1091 103.551C93.4346 100.448 92.1531 97.4803 90.2645 94.6474C88.3759 91.8145 86.7572 88.7793 85.4082 85.5418C84.0592 82.3042 82.1706 79.4039 79.7425 76.8409C77.3143 74.2778 75.0885 71.5124 73.065 68.5446C71.0415 65.5769 69.3553 63.4185 68.0063 62.0695C66.6574 60.7206 65.2409 59.6414 63.7571 58.832C62.2732 58.0226 58.8333 56.9434 53.4374 55.5944C48.0414 54.2455 44.1294 52.7616 41.7012 51.1428C40.4872 50.3334 39.2731 49.524 38.059 48.7146C39.408 48.5797 40.7569 48.4448 42.1059 48.3099C44.8039 48.0401 47.6367 48.6472 50.6045 50.1311C53.5723 51.6149 56.6075 52.6267 59.7101 53.1663C62.8128 53.7059 65.3084 54.5152 67.1969 55.5944C69.0855 56.6736 70.9066 58.1575 72.6603 60.0461C74.414 61.9346 75.6955 62.9464 76.5049 63.0813C77.3143 63.2162 77.9888 63.0138 78.5284 62.4742C79.068 61.9346 79.675 60.5182 80.3495 58.2249C81.024 55.9317 81.4961 53.1663 81.7659 49.9287C81.9008 48.3099 82.0357 46.6912 82.1706 45.0724C82.7777 45.2073 83.3847 45.3422 83.9917 45.4771C84.5988 45.612 85.2058 45.7469 85.8129 45.8818C85.4756 47.4331 85.1384 48.9844 84.8011 50.5358C84.1266 53.6384 84.1266 55.4595 84.8011 55.9991C85.4756 56.5387 87.2967 56.3364 90.2645 55.3921C93.2323 54.4478 95.7279 53.1663 97.7513 51.5475C99.7748 49.9287 100.921 48.7821 101.191 48.1076C101.461 47.4331 102.068 47.0284 103.012 46.8935C103.485 46.8261 103.957 46.7586 104.429 46.6912C104.024 47.4331 103.619 48.175 103.215 48.917C102.405 50.4009 101.394 51.7498 100.18 52.9639C98.9654 54.178 96.6722 55.4595 93.2997 56.8085C89.9273 58.1575 87.2967 59.0343 85.4082 59.439C83.5196 59.8437 82.1032 61.4625 81.1589 64.2954C80.2146 67.1282 79.7425 68.8819 79.7425 69.5564C79.7425 70.2309 80.7542 71.8496 82.7777 74.4127C84.8011 76.9758 86.9595 80.4831 89.2528 84.9347C91.546 89.3864 93.7044 92.8263 95.7279 95.2544C97.7513 97.6826 99.1003 98.9641 99.7748 99.099C100.449 99.2339 101.056 99.0316 101.596 98.492C102.136 97.9524 102.54 96.6034 102.81 94.445C103.08 92.2867 103.619 90.2632 104.429 88.3746C105.238 86.4861 106.722 84.3277 108.88 81.8995C111.039 79.4714 112.455 77.4479 113.13 75.8291C113.804 74.2104 114.209 71.1751 114.344 66.7235C114.479 62.2719 114.074 57.6854 113.13 52.9639C112.658 50.6032 112.185 48.2425 111.713 45.8818C112.118 45.8143 112.523 45.7469 112.927 45.6794C113.737 45.5445 114.614 47.0959 115.558 50.3334C116.502 53.571 117.514 55.3246 118.593 55.5944C119.672 55.8642 121.089 55.1897 122.842 53.571C124.596 51.9522 126.35 50.6707 128.103 49.7264C129.857 48.7821 132.622 48.1076 136.4 47.7029C140.177 47.2982 143.482 46.6237 146.315 45.6794C149.147 44.7351 151.711 44.6002 154.004 45.2747ZM77.3143 44.6677C77.4492 44.6677 77.5841 44.6677 77.719 44.6677C77.719 45.3422 77.719 46.0167 77.719 46.6912C77.719 48.0401 77.4492 49.9962 76.9096 52.5592C76.6398 53.8408 76.37 55.1223 76.1002 56.4038C74.5489 55.3246 72.9976 54.2455 71.4462 53.1663C68.3436 51.0079 64.499 49.3891 59.9125 48.3099C57.6192 47.7704 55.3259 47.2308 53.0327 46.6912C53.3699 46.5563 53.7072 46.4214 54.0444 46.2865C54.7189 46.0167 55.933 46.219 57.6866 46.8935C59.4403 47.568 61.6661 47.9052 64.3641 47.9052C67.0621 47.9052 69.8275 47.3657 72.6603 46.2865C75.4932 45.2073 77.0445 44.6677 77.3143 44.6677ZM118.593 44.6677C119.47 45.0724 120.347 45.4771 121.224 45.8818C122.1 46.2865 122.977 46.6912 123.854 47.0959C123.247 47.5006 122.64 47.9052 122.033 48.3099C121.426 48.7146 120.819 49.1193 120.212 49.524C119.942 48.7146 119.672 47.9052 119.402 47.0959C119.133 46.2865 118.863 45.4771 118.593 44.6677ZM92.895 47.0959C93.7718 47.0959 94.6487 47.0959 95.5255 47.0959C95.5255 47.2308 95.5255 47.3657 95.5255 47.5006C95.5255 47.7704 94.5138 48.3774 92.4903 49.3217C91.4786 49.7938 90.4668 50.266 89.4551 50.7381C89.59 50.1311 89.7249 49.524 89.8598 48.917C90.1296 47.7029 91.1413 47.0959 92.895 47.0959ZM107.666 50.3334C108.071 52.222 108.476 54.1106 108.88 55.9991C109.69 59.7763 110.027 63.4185 109.892 66.9259C109.757 70.4332 109.487 72.7265 109.083 73.8057C108.678 74.8848 107.397 76.6385 105.238 79.0667C103.08 81.4948 101.394 84.1254 100.18 86.9582C99.5725 88.3746 98.9654 89.7911 98.3584 91.2075C97.549 90.0609 96.7396 88.9142 95.9302 87.7676C94.3114 85.4743 93.0299 83.1811 92.0856 80.8878C91.1413 78.5945 89.6575 76.0989 87.634 73.401C85.6105 70.703 84.5988 69.1517 84.5988 68.747C84.5988 68.3423 84.8011 67.4655 85.2058 66.1165C85.6105 64.7675 88.1736 63.2836 92.895 61.6648C97.6164 60.0461 100.921 58.3598 102.81 56.6062C104.699 54.8525 105.98 53.3686 106.655 52.1545C106.992 51.5475 107.329 50.9405 107.666 50.3334Z" fill="#384c40" fill-rule="nonzero" opacity="1" stroke="none"></path></g></g></svg>